<svg width="21" height="18" viewBox="0 0 21 18" fill="none" xmlns="http://www.w3.org/2000/svg">
<path id="Vector" d="M1.26586 0.00012207C1.04954 0.000518456 0.842196 0.079347 0.689231 0.21935C0.536267 0.359354 0.45014 0.549125 0.449707 0.747119V9.00009C0.449707 13.9711 4.85169 18 10.2829 18C15.7141 18 20.1161 13.9711 20.1161 9.00009C20.1161 4.02911 15.7141 0.00012207 10.2829 0.00012207H1.26586ZM10.4189 2.68661C12.2296 2.70225 13.9594 3.37554 15.2278 4.5584C16.4962 5.74125 17.1993 7.33679 17.1825 8.99409C17.165 10.6511 16.4292 12.2339 15.1368 13.3945C13.8445 14.5551 12.1015 15.1985 10.2911 15.1831C6.52415 15.1493 3.49307 12.3256 3.52749 8.87559C3.56436 5.4256 6.64952 2.65361 10.4189 2.68661ZM10.3935 4.3891C9.06811 4.37951 7.79269 4.85156 6.84712 5.70168C5.90156 6.55179 5.3631 7.71052 5.3499 8.92359C5.33811 10.1381 5.85369 11.3072 6.7833 12.174C7.71292 13.0407 8.98051 13.5341 10.3075 13.5458C10.964 13.5513 11.6152 13.4382 12.224 13.2132C12.8328 12.9882 13.3872 12.6557 13.8555 12.2345C14.3238 11.8133 14.6968 11.3118 14.9533 10.7586C15.2098 10.2055 15.3447 9.61148 15.3502 9.01059C15.3623 7.79723 14.8477 6.6291 13.9196 5.76263C12.9915 4.89616 11.7257 4.40217 10.4001 4.3891H10.3935ZM10.3771 6.64884C11.049 6.65577 11.6904 6.9062 12.1609 7.34524C12.6314 7.78429 12.8925 8.37614 12.887 8.99109C12.884 9.29555 12.8155 9.59648 12.6853 9.87667C12.5551 10.1569 12.3658 10.4108 12.1283 10.624C11.8907 10.8371 11.6096 11.0053 11.3009 11.1189C10.9923 11.2325 10.6622 11.2893 10.3296 11.2861L10.3312 11.2853C9.65947 11.2798 9.01764 11.0302 8.54694 10.5915C8.07624 10.1528 7.81522 9.56092 7.82131 8.94609C7.82739 8.33125 8.10008 7.74381 8.57939 7.31299C9.0587 6.88218 9.70536 6.64328 10.3771 6.64884Z" fill="#F8F8F8"/>
</svg>
