<svg width="19" height="17" viewBox="0 0 19 17" fill="none" xmlns="http://www.w3.org/2000/svg">
<path id="Vector" d="M3.97592 7.1781C5.41591 9.7858 7.73589 11.9144 10.5659 13.2505L12.7658 11.2233C13.0358 10.9745 13.4358 10.8915 13.7858 11.0021C14.9058 11.3431 16.1158 11.5273 17.3558 11.5273C17.9058 11.5273 18.3558 11.942 18.3558 12.4488V15.6647C18.3558 16.1715 17.9058 16.5861 17.3558 16.5861C7.96589 16.5861 0.355957 9.57387 0.355957 0.92145C0.355957 0.414653 0.805953 0 1.35595 0H4.85591C5.40591 0 5.85591 0.414653 5.85591 0.92145C5.85591 2.07326 6.0559 3.179 6.4259 4.21103C6.5359 4.53354 6.4559 4.8929 6.1759 5.15091L3.97592 7.1781Z" fill="white"/>
</svg>
