<svg width="23" height="22" viewBox="0 0 23 22" fill="none" xmlns="http://www.w3.org/2000/svg">
<g id="ion:home">
<path id="Vector" d="M11.7499 4.35194C11.683 4.29075 11.594 4.25659 11.5014 4.25659C11.4089 4.25659 11.3199 4.29075 11.253 4.35194L2.98291 11.9089C2.94779 11.941 2.91985 11.9796 2.90077 12.0224C2.8817 12.0651 2.8719 12.1112 2.87195 12.1576L2.87061 19.2501C2.87061 19.6147 3.02206 19.9645 3.29164 20.2223C3.56122 20.4802 3.92686 20.6251 4.30811 20.6251H8.6251C8.81572 20.6251 8.99854 20.5526 9.13333 20.4237C9.26812 20.2948 9.34385 20.1199 9.34385 19.9376V14.0938C9.34385 14.0026 9.38171 13.9152 9.44911 13.8507C9.5165 13.7863 9.60791 13.7501 9.70322 13.7501H13.297C13.3923 13.7501 13.4837 13.7863 13.5511 13.8507C13.6185 13.9152 13.6563 14.0026 13.6563 14.0938V19.9376C13.6563 20.1199 13.7321 20.2948 13.8669 20.4237C14.0017 20.5526 14.1845 20.6251 14.3751 20.6251H18.6903C19.0715 20.6251 19.4372 20.4802 19.7068 20.2223C19.9763 19.9645 20.1278 19.6147 20.1278 19.2501V12.1576C20.1278 12.1112 20.118 12.0651 20.099 12.0224C20.0799 11.9796 20.052 11.941 20.0168 11.9089L11.7499 4.35194Z" fill="#F8F8F8"/>
<path id="Vector_2" d="M22.0526 10.4908L18.6925 7.41598V2.75C18.6925 2.56766 18.6167 2.3928 18.4819 2.26386C18.3471 2.13493 18.1643 2.0625 17.9737 2.0625H15.8175C15.6268 2.0625 15.444 2.13493 15.3092 2.26386C15.1744 2.3928 15.0987 2.56766 15.0987 2.75V4.125L12.4968 1.74539C12.2534 1.50992 11.8913 1.375 11.5 1.375C11.1101 1.375 10.7489 1.50992 10.5054 1.74582L0.950564 10.49C0.67115 10.7478 0.636111 11.1719 0.890369 11.4512C0.954217 11.5217 1.03239 11.579 1.12014 11.6197C1.20789 11.6604 1.30338 11.6835 1.40079 11.6878C1.4982 11.6921 1.5955 11.6773 1.68676 11.6445C1.77803 11.6116 1.86135 11.5614 1.93166 11.4967L11.2529 2.97688C11.3198 2.91568 11.4088 2.88152 11.5014 2.88152C11.5939 2.88152 11.6829 2.91568 11.7498 2.97688L21.072 11.4967C21.2093 11.6227 21.3932 11.6914 21.5834 11.6879C21.7737 11.6843 21.9547 11.6088 22.0868 11.4778C22.3626 11.2045 22.3397 10.7534 22.0526 10.4908Z" fill="#F8F8F8"/>
</g>
</svg>
