<svg width="24" height="17" viewBox="0 0 24 17" fill="none" xmlns="http://www.w3.org/2000/svg">
<path id="Vector" d="M20.9363 14.5128H18.6864V5.44232L11.9364 9.32969L5.18648 5.44232V14.5128H2.9365V2.07326H4.28649L11.9364 6.47895L19.5863 2.07326H20.9363M20.9363 0H2.9365C1.68776 0 0.686523 0.922602 0.686523 2.07326V14.5128C0.686523 15.0627 0.923574 15.59 1.34553 15.9789C1.76748 16.3677 2.33977 16.5861 2.9365 16.5861H20.9363C21.5331 16.5861 22.1054 16.3677 22.5273 15.9789C22.9493 15.59 23.1863 15.0627 23.1863 14.5128V2.07326C23.1863 1.5234 22.9493 0.996057 22.5273 0.607245C22.1054 0.218432 21.5331 0 20.9363 0Z" fill="white"/>
</svg>
