<svg width="23" height="22" viewBox="0 0 23 22" fill="none" xmlns="http://www.w3.org/2000/svg">
<g id="ion:home">
<path id="Vector" d="M11.7499 4.35182C11.683 4.29062 11.594 4.25647 11.5014 4.25647C11.4089 4.25647 11.3199 4.29062 11.253 4.35182L2.98291 11.9087C2.94779 11.9409 2.91985 11.9795 2.90077 12.0223C2.8817 12.065 2.8719 12.111 2.87195 12.1575L2.87061 19.2499C2.87061 19.6146 3.02206 19.9644 3.29164 20.2222C3.56122 20.4801 3.92686 20.6249 4.30811 20.6249H8.6251C8.81572 20.6249 8.99854 20.5525 9.13333 20.4236C9.26812 20.2947 9.34385 20.1198 9.34385 19.9374V14.0937C9.34385 14.0025 9.38171 13.9151 9.44911 13.8506C9.5165 13.7862 9.60791 13.7499 9.70322 13.7499H13.297C13.3923 13.7499 13.4837 13.7862 13.5511 13.8506C13.6185 13.9151 13.6563 14.0025 13.6563 14.0937V19.9374C13.6563 20.1198 13.7321 20.2947 13.8669 20.4236C14.0017 20.5525 14.1845 20.6249 14.3751 20.6249H18.6903C19.0715 20.6249 19.4372 20.4801 19.7068 20.2222C19.9763 19.9644 20.1278 19.6146 20.1278 19.2499V12.1575C20.1278 12.111 20.118 12.065 20.099 12.0223C20.0799 11.9795 20.052 11.9409 20.0168 11.9087L11.7499 4.35182Z" fill="#FBC618"/>
<path id="Vector_2" d="M22.0526 10.4908L18.6925 7.41598V2.75C18.6925 2.56766 18.6167 2.3928 18.4819 2.26386C18.3471 2.13493 18.1643 2.0625 17.9737 2.0625H15.8175C15.6268 2.0625 15.444 2.13493 15.3092 2.26386C15.1744 2.3928 15.0987 2.56766 15.0987 2.75V4.125L12.4968 1.74539C12.2534 1.50992 11.8913 1.375 11.5 1.375C11.1101 1.375 10.7489 1.50992 10.5054 1.74582L0.950564 10.49C0.67115 10.7478 0.636111 11.1719 0.890369 11.4512C0.954217 11.5217 1.03239 11.579 1.12014 11.6197C1.20789 11.6604 1.30338 11.6835 1.40079 11.6878C1.4982 11.6921 1.5955 11.6773 1.68676 11.6445C1.77803 11.6116 1.86135 11.5614 1.93166 11.4967L11.2529 2.97688C11.3198 2.91568 11.4088 2.88152 11.5014 2.88152C11.5939 2.88152 11.6829 2.91568 11.7498 2.97688L21.072 11.4967C21.2093 11.6227 21.3932 11.6914 21.5834 11.6879C21.7737 11.6843 21.9547 11.6088 22.0868 11.4778C22.3626 11.2045 22.3397 10.7534 22.0526 10.4908Z" fill="#FBC618"/>
</g>
</svg>
