<svg width="23" height="22" viewBox="0 0 23 22" fill="none" xmlns="http://www.w3.org/2000/svg">
<g id="ion:home">
<path id="Vector" d="M11.7494 4.35219C11.6825 4.29099 11.5935 4.25684 11.501 4.25684C11.4084 4.25684 11.3194 4.29099 11.2525 4.35219L2.98242 11.9091C2.9473 11.9412 2.91936 11.9799 2.90029 12.0226C2.88121 12.0654 2.87141 12.1114 2.87146 12.1579L2.87012 19.2503C2.87012 19.615 3.02157 19.9647 3.29115 20.2226C3.56073 20.4804 3.92637 20.6253 4.30762 20.6253H8.62461C8.81523 20.6253 8.99805 20.5529 9.13284 20.4239C9.26763 20.295 9.34336 20.1201 9.34336 19.9378V14.0941C9.34336 14.0029 9.38122 13.9155 9.44862 13.851C9.51601 13.7865 9.60742 13.7503 9.70273 13.7503H13.2965C13.3918 13.7503 13.4832 13.7865 13.5506 13.851C13.618 13.9155 13.6559 14.0029 13.6559 14.0941V19.9378C13.6559 20.1201 13.7316 20.295 13.8664 20.4239C14.0012 20.5529 14.184 20.6253 14.3746 20.6253H18.6898C19.0711 20.6253 19.4367 20.4804 19.7063 20.2226C19.9759 19.9647 20.1273 19.615 20.1273 19.2503V12.1579C20.1274 12.1114 20.1176 12.0654 20.0985 12.0226C20.0794 11.9799 20.0515 11.9412 20.0163 11.9091L11.7494 4.35219Z" fill="#F8F8F8"/>
<path id="Vector_2" d="M22.0526 10.4908L18.6925 7.41598V2.75C18.6925 2.56766 18.6167 2.3928 18.4819 2.26386C18.3471 2.13493 18.1643 2.0625 17.9737 2.0625H15.8175C15.6268 2.0625 15.444 2.13493 15.3092 2.26386C15.1744 2.3928 15.0987 2.56766 15.0987 2.75V4.125L12.4968 1.74539C12.2534 1.50992 11.8913 1.375 11.5 1.375C11.1101 1.375 10.7489 1.50992 10.5054 1.74582L0.950564 10.49C0.67115 10.7478 0.636111 11.1719 0.890369 11.4512C0.954216 11.5217 1.03239 11.579 1.12014 11.6197C1.20789 11.6604 1.30338 11.6835 1.40079 11.6878C1.4982 11.6921 1.5955 11.6773 1.68676 11.6445C1.77803 11.6116 1.86135 11.5613 1.93166 11.4967L11.2529 2.97688C11.3198 2.91568 11.4088 2.88152 11.5014 2.88152C11.5939 2.88152 11.6829 2.91568 11.7498 2.97688L21.072 11.4967C21.2093 11.6227 21.3932 11.6914 21.5834 11.6879C21.7737 11.6843 21.9547 11.6088 22.0868 11.4778C22.3626 11.2045 22.3397 10.7534 22.0526 10.4908Z" fill="#F8F8F8"/>
</g>
</svg>
